<svg xmlns="http://www.w3.org/2000/svg" xmlns:xlink="http://www.w3.org/1999/xlink" width="24" height="24" preserveAspectRatio="xMidYMid meet" viewBox="0 0 24 24" style="-ms-transform: rotate(360deg); -webkit-transform: rotate(360deg); transform: rotate(360deg);"><path d="M13 8a4 4 0 1 1-8 0 4 4 0 0 1 8 0zm4 10v2H1v-2c0-2.21 3.58-4 8-4s8 1.79 8 4zm3.5-3.5V16H19v-1.5h1.5zm-2-5H17V9a3 3 0 1 1 6 0c0 .971-.486 1.875-1.294 2.408l-.293.193a2.033 2.033 0 0 0-.913 1.697v.202H19v-.202c0-1.187.596-2.295 1.587-2.949l.293-.193c.387-.256.62-.689.62-1.153a1.5 1.5 0 0 0-3-.003v.5z" fill="white"/><rect x="0" y="0" width="24" height="24" fill="rgba(0, 0, 0, 0)" /></svg>