<svg xmlns="http://www.w3.org/2000/svg" xmlns:xlink="http://www.w3.org/1999/xlink" width="1472" height="1536" preserveAspectRatio="xMidYMid meet" viewBox="0 0 1472 1536" style="-ms-transform: rotate(360deg); -webkit-transform: rotate(360deg); transform: rotate(360deg);"><path d="M1431 1320q56 89 21.5 152.5T1312 1536H160q-106 0-140.5-63.5T41 1320l503-793V128h-64q-26 0-45-19t-19-45 19-45 45-19h512q26 0 45 19t19 45-19 45-45 19h-64v399zM652 595l-272 429h712L820 595l-20-31V128H672v436z" fill="white"/><rect x="0" y="0" width="1472" height="1536" fill="rgba(0, 0, 0, 0)" /></svg>