<?xml version="1.0" standalone="no"?>
<!DOCTYPE svg PUBLIC "-//W3C//DTD SVG 20010904//EN"
 "http://www.w3.org/TR/2001/REC-SVG-20010904/DTD/svg10.dtd">
<svg version="1.0" xmlns="http://www.w3.org/2000/svg"
 width="1344.000000pt" height="1344.000000pt" viewBox="0 0 1344.000000 1344.000000"
 preserveAspectRatio="xMidYMid meet">
<metadata>
Created by potrace 1.11, written by Peter Selinger 2001-2013
</metadata>
<g transform="translate(0.000000,1344.000000) scale(0.100000,-0.100000)"
fill="#FFFFFF" stroke="none">
<path d="M6537 13383 c59 -68 88 -112 80 -119 -8 -9 -59 21 -120 70 -30 25
-58 46 -61 46 -3 0 -6 -101 -6 -225 l0 -226 64 55 c78 66 115 91 123 83 8 -9
-39 -86 -81 -133 -44 -48 -45 -61 -6 -58 36 2 36 2 7 -30 -76 -82 -52 -269 42
-330 l26 -17 -32 4 -31 3 5 -57 5 -57 -49 -4 c-26 -3 -49 -4 -50 -3 -1 0 -4
18 -6 39 -4 38 -18 54 -47 57 -42 5 -91 -4 -147 -26 -34 -14 -67 -25 -74 -25
-7 0 -51 -12 -98 -26 -322 -98 -481 -269 -481 -519 -1 -116 9 -162 72 -350 69
-203 156 -396 245 -542 l44 -73 0 -119 c1 -82 -3 -125 -13 -140 -24 -39 -184
-132 -313 -180 -33 -13 -69 -27 -80 -31 -44 -18 -222 -79 -247 -86 -24 -5 -28
-3 -29 17 0 13 -2 32 -4 41 -2 10 21 66 50 125 113 230 147 329 148 438 0 63
-4 89 -21 121 -42 81 -115 134 -238 173 -37 11 -73 21 -80 21 -6 0 -24 6 -39
14 -15 8 -34 13 -43 11 -9 -2 -22 -4 -28 -4 -7 -1 -15 -12 -18 -26 -5 -18 -13
-25 -31 -25 -25 0 -29 7 -25 49 1 17 -2 21 -12 16 -7 -5 -3 3 8 16 40 45 50
104 25 152 -15 29 -16 37 -5 37 18 0 18 16 1 27 -19 12 -60 73 -53 80 3 3 26
-11 51 -31 25 -21 46 -36 46 -34 4 9 5 224 2 231 -3 5 -15 0 -27 -10 -33 -30
-76 -54 -76 -44 0 10 50 74 63 79 26 12 -7 17 -108 17 -71 0 -114 -4 -113 -10
0 -5 12 -27 26 -48 14 -20 23 -39 21 -42 -3 -2 -25 12 -49 31 l-45 36 -3 -117
c-1 -65 0 -120 3 -123 2 -3 17 7 32 22 29 29 63 51 63 41 0 -11 -22 -48 -41
-69 -23 -24 -24 -36 -2 -36 14 0 14 -2 -3 -21 -14 -16 -19 -36 -18 -75 0 -46
5 -59 30 -85 20 -21 23 -28 11 -23 -15 6 -18 2 -17 -17 1 -13 2 -30 1 -36 -1
-18 -51 -16 -51 1 0 8 -7 22 -16 31 -16 16 -55 14 -94 -5 -8 -4 -53 -19 -100
-34 -233 -71 -306 -207 -234 -437 32 -103 97 -256 139 -326 49 -82 46 -183 -5
-183 -35 0 -196 51 -270 86 -277 130 -323 276 -181 579 71 151 84 181 103 235
40 117 43 221 9 289 -30 57 -48 72 -150 122 -46 23 -134 72 -195 108 -130 78
-163 93 -208 93 -83 0 -207 -95 -293 -223 -61 -91 -169 -207 -192 -206 -26 1
-100 -12 -163 -30 -215 -60 -320 -176 -307 -339 6 -81 34 -128 127 -219 83
-80 109 -124 105 -179 -5 -64 -38 -78 -117 -52 -83 28 -138 30 -188 4 -92 -47
-115 -161 -55 -281 25 -51 110 -146 120 -135 3 2 -2 25 -10 51 -20 68 -3 137
34 137 10 0 53 -9 96 -20 150 -38 228 -24 316 58 53 48 57 51 50 25 -15 -49
-24 -67 -66 -133 -57 -90 -68 -122 -68 -193 0 -132 98 -250 225 -272 15 -3 42
-7 58 -10 37 -6 37 -3 4 41 -82 107 -71 221 38 386 71 109 99 179 100 257 2
95 -17 149 -95 277 -69 113 -90 182 -83 266 11 120 42 232 64 226 34 -9 176
40 315 108 l108 53 15 -35 c30 -73 19 -170 -41 -348 -83 -249 -88 -350 -20
-456 68 -105 231 -204 427 -259 92 -26 230 -51 284 -51 22 0 43 -2 46 -5 3 -3
0 -20 -5 -38 -10 -30 -15 -33 -49 -34 -47 -1 -75 -24 -84 -69 -6 -31 -9 -34
-43 -34 -116 -1 -267 -61 -345 -138 -84 -82 -118 -176 -111 -305 6 -113 36
-196 94 -257 26 -27 52 -50 58 -50 6 0 18 11 26 24 24 36 105 85 182 108 87
27 257 29 350 4 66 -18 145 -48 145 -56 0 -3 -21 -5 -48 -6 -60 -1 -150 -12
-191 -24 -17 -5 -31 -6 -31 -3 0 3 -7 0 -15 -7 -8 -7 -15 -10 -15 -6 0 6 -90
-25 -160 -57 -140 -62 -279 -95 -387 -91 -115 5 -193 53 -230 144 -13 30 -16
32 -25 16 -17 -30 -4 -128 25 -187 53 -110 149 -182 276 -209 154 -33 267 -2
386 104 46 41 158 114 211 138 62 27 153 48 160 37 3 -5 -3 -9 -14 -9 -33 0
-155 -67 -198 -108 -109 -106 -97 -230 33 -320 17 -12 33 -22 35 -22 2 0 4 28
4 63 1 96 40 157 142 223 76 49 175 74 276 70 70 -3 97 -10 179 -45 53 -22
105 -41 115 -41 27 0 82 20 82 30 0 5 9 11 20 15 56 18 295 -317 383 -537 58
-143 76 -338 42 -454 -55 -192 -185 -311 -350 -322 -65 -4 -75 -2 -137 31
l-67 35 4 -58 c10 -170 150 -284 329 -266 35 3 72 9 80 12 25 10 19 -2 -11
-22 -26 -17 -59 -18 -438 -19 l-409 0 0 -391 0 -391 -71 13 c-99 19 -199 71
-269 141 -71 70 -107 138 -113 215 -8 81 26 145 139 267 183 196 204 341 80
541 -74 119 -137 187 -576 619 -185 181 -283 287 -349 373 -52 68 -52 68 -68
46 -10 -12 -23 -39 -30 -60 -7 -21 -15 -38 -18 -38 -32 0 -199 173 -288 298
-103 144 -190 301 -209 377 -8 32 -35 26 -81 -18 -32 -30 -33 -31 -51 -11
-175 191 -784 1171 -985 1587 -47 95 -48 97 -72 85 -56 -30 -135 -107 -173
-170 -64 -105 -84 -187 -88 -358 -5 -205 24 -328 129 -550 64 -134 205 -363
284 -460 6 -8 42 -53 79 -100 38 -47 70 -87 73 -90 4 -3 20 -21 36 -40 l30
-34 -40 33 c-22 19 -111 102 -199 185 -287 273 -439 415 -516 482 -25 21 -47
41 -50 45 -3 3 -21 17 -42 32 l-36 28 -19 -28 c-77 -113 -111 -328 -78 -490
52 -254 199 -483 388 -605 26 -17 47 -33 47 -35 0 -1 -24 7 -52 18 -48 19
-157 57 -183 63 -5 2 -30 8 -54 15 -75 21 -188 38 -243 36 -105 -4 -98 0 -98
-53 0 -235 127 -453 388 -663 40 -33 72 -59 70 -59 -2 0 -37 6 -78 14 -191 37
-345 38 -473 5 -38 -10 -38 -10 -32 -51 28 -184 220 -414 447 -536 30 -15 61
-33 69 -38 8 -5 39 -19 69 -31 l55 -21 -125 0 c-110 -1 -195 -8 -294 -27 -44
-9 -148 -46 -175 -63 -30 -20 -24 -61 25 -161 59 -119 187 -234 344 -309 66
-31 227 -82 261 -82 10 0 21 -5 25 -12 4 -6 3 -8 -4 -4 -12 7 -92 -8 -182 -36
-71 -23 -177 -73 -236 -113 -43 -29 -134 -114 -134 -125 0 -12 120 -132 160
-162 112 -81 276 -135 424 -137 l38 -1 -69 -35 c-114 -59 -234 -178 -291 -292
l-22 -41 53 -35 c78 -51 124 -73 202 -92 69 -17 216 -23 283 -11 17 3 47 8 65
11 51 9 188 45 208 55 10 6 21 10 26 10 4 -1 -44 -27 -107 -59 -242 -120 -305
-190 -349 -379 -11 -52 -24 -104 -27 -117 -5 -21 2 -27 78 -64 96 -47 157 -61
248 -56 148 9 232 49 464 223 78 58 143 108 146 112 3 3 32 25 64 49 99 73 53
28 -77 -76 -67 -54 -124 -100 -127 -103 -3 -3 -50 -41 -105 -85 -227 -180
-248 -224 -210 -445 10 -58 19 -106 20 -107 1 -1 19 -5 41 -9 21 -3 72 -12
112 -19 160 -27 264 1 342 96 25 30 47 56 50 59 7 7 55 65 105 125 22 27 90
108 150 181 61 72 128 153 150 179 22 27 45 53 50 59 6 6 33 38 60 70 28 32
61 70 74 85 l23 26 -18 -30 c-10 -16 -96 -136 -192 -265 -218 -293 -205 -276
-286 -393 -141 -204 -143 -257 -21 -477 14 -25 25 -51 25 -58 0 -10 13 -12 53
-8 28 3 84 6 122 7 126 1 192 30 242 104 19 29 163 283 163 288 0 2 38 72 85
156 47 85 85 158 85 162 0 5 5 9 10 9 6 0 10 5 10 10 0 14 112 201 117 196 3
-3 -145 -330 -284 -626 -104 -221 -103 -274 9 -392 33 -34 72 -77 86 -95 l27
-32 60 19 c33 10 90 26 127 35 78 20 135 54 165 98 18 27 64 148 78 207 8 33
67 238 80 280 8 25 31 96 51 158 19 61 40 112 46 112 5 0 7 -8 4 -17 -2 -10
-8 -45 -12 -78 -4 -33 -8 -62 -9 -65 0 -3 -5 -30 -9 -60 -4 -30 -10 -64 -12
-75 -2 -11 -7 -42 -10 -70 -4 -27 -8 -53 -10 -56 -2 -4 -6 -37 -9 -75 -10
-113 17 -155 151 -233 39 -23 81 -53 94 -66 17 -18 27 -22 35 -15 7 6 54 28
105 50 166 71 186 97 205 275 8 74 16 201 21 335 3 79 7 147 10 149 2 3 17 -8
34 -24 24 -23 32 -26 45 -15 8 7 16 11 16 9 1 -2 3 -157 4 -344 2 -334 3 -342
30 -455 15 -63 34 -132 41 -152 l13 -38 -46 0 c-25 0 -72 7 -105 16 -33 8 -63
12 -66 9 -4 -3 1 -26 9 -49 l16 -44 -86 -21 c-163 -42 -274 -118 -355 -244
-64 -100 -88 -176 -89 -282 -1 -48 13 -207 19 -216 3 -5 7 -44 11 -87 4 -63 2
-85 -12 -113 -20 -39 -50 -67 -83 -80 -31 -12 -104 -11 -137 1 -26 10 -27 9
-20 -17 17 -68 78 -136 153 -170 48 -22 64 -25 140 -21 96 5 152 27 209 81 18
17 35 28 39 25 3 -4 7 -40 8 -80 3 -87 -17 -177 -51 -232 l-25 -38 54 6 c69 9
133 39 186 90 26 25 42 35 43 26 1 -25 10 -74 14 -78 7 -7 48 21 91 60 23 21
45 35 48 30 8 -14 17 -73 20 -141 1 -34 5 -63 7 -65 8 -8 102 44 147 81 48 39
78 92 88 152 4 24 11 40 18 38 6 -2 38 -56 70 -119 l60 -116 33 71 c18 40 33
78 33 86 0 11 3 11 18 -2 58 -53 204 -95 314 -91 45 2 67 9 107 36 28 18 51
36 51 40 0 5 22 8 48 8 90 0 184 67 214 150 6 17 15 29 22 26 39 -17 229 -76
242 -76 22 0 11 -62 -21 -111 -91 -140 -275 -251 -403 -245 -50 3 -53 2 -36
-11 42 -32 152 -81 206 -92 53 -11 101 -10 153 5 l20 6 -20 -15 c-48 -35 -201
-110 -330 -162 -255 -103 -305 -132 -513 -293 -165 -128 -231 -164 -313 -170
-60 -4 -93 10 -125 57 -31 43 -23 114 17 173 11 14 19 29 19 33 0 12 -93 -2
-143 -22 -26 -10 -67 -34 -91 -53 -82 -65 -116 -137 -123 -260 -6 -92 17 -156
77 -215 l39 -38 -42 -30 c-60 -42 -111 -101 -144 -166 -25 -51 -28 -66 -28
-161 0 -94 3 -111 27 -161 15 -30 50 -80 77 -110 28 -30 58 -69 66 -87 19 -38
25 -113 14 -155 -7 -26 -6 -27 14 -21 98 30 174 123 192 234 4 25 16 65 28 90
l20 45 9 -67 c18 -151 93 -269 223 -353 59 -37 72 -43 145 -61 125 -30 263 -1
361 77 22 17 41 30 42 28 1 -2 13 -26 27 -54 33 -67 131 -163 210 -207 161
-90 332 -96 498 -18 36 17 69 27 73 23 4 -4 15 -24 25 -43 27 -51 72 -107 127
-159 53 -50 165 -130 183 -131 20 0 137 81 192 134 30 28 76 85 104 126 27 41
51 76 53 78 2 2 26 -9 55 -23 78 -39 182 -63 259 -59 189 11 378 126 458 279
14 28 27 52 29 54 2 2 22 -12 44 -32 154 -132 424 -106 584 55 82 83 129 179
142 285 3 32 8 60 9 61 8 8 33 -58 50 -128 29 -123 76 -186 167 -224 l35 -15
-3 74 c-3 69 -1 77 29 122 18 26 49 66 69 87 66 70 98 163 94 270 -5 124 -59
224 -162 302 l-52 39 43 46 c67 72 88 159 64 271 -32 152 -160 266 -305 273
-57 3 -57 3 -21 -46 28 -39 36 -88 21 -132 -22 -62 -58 -87 -127 -87 -83 0
-161 42 -342 186 -141 112 -223 163 -357 222 -65 29 -121 52 -124 52 -20 0
-302 136 -339 163 -17 13 -14 14 30 2 106 -26 204 8 273 97 13 16 8 17 -55 11
-94 -8 -123 8 -164 90 -20 41 -56 86 -104 133 -46 45 -77 85 -85 108 -6 21
-10 39 -8 41 1 1 44 18 94 37 l92 34 18 -30 c49 -86 122 -115 234 -92 32 7 37
4 53 -23 20 -35 86 -90 137 -116 44 -22 137 -26 213 -9 64 15 167 62 167 76 0
5 5 6 10 3 6 -3 10 -15 10 -26 0 -24 47 -119 59 -119 12 0 24 19 46 70 11 25
36 72 56 104 l37 59 10 -50 c14 -63 44 -114 85 -146 41 -31 137 -80 144 -73 3
3 7 23 8 43 3 47 37 181 42 166 4 -12 105 -93 116 -93 4 0 12 21 18 47 l12 46
21 -24 c53 -61 121 -96 209 -106 l49 -5 -26 38 c-45 69 -68 202 -50 292 l6 31
48 -40 c113 -96 259 -105 350 -23 37 33 67 94 56 112 -2 4 -21 9 -41 10 -51 4
-80 25 -105 79 -28 60 -30 105 -9 264 37 280 0 417 -154 569 -58 58 -178 121
-267 140 -97 21 -91 15 -73 66 8 25 13 47 11 49 -2 2 -31 -2 -63 -10 -82 -19
-112 -18 -145 5 -28 20 -28 20 -33 0 -4 -14 -13 -19 -31 -18 -30 3 -32 14 -10
83 52 172 56 210 56 592 0 200 3 363 7 363 4 0 33 -15 64 -34 l57 -35 29 25
c16 13 31 24 34 24 2 0 6 -44 7 -97 4 -171 16 -387 25 -436 18 -96 28 -118 70
-155 24 -21 76 -51 117 -67 40 -15 85 -36 99 -46 26 -18 27 -18 45 2 10 11 59
44 109 74 49 29 98 62 108 73 24 26 46 89 42 119 -2 13 -6 51 -10 86 -3 34 -8
69 -10 77 -19 69 -61 390 -51 390 6 0 82 -236 126 -390 101 -359 121 -405 197
-450 35 -20 114 -45 181 -56 18 -3 49 -12 70 -21 35 -15 37 -14 52 8 8 13 45
55 83 94 117 122 124 186 38 368 -28 60 -51 110 -51 112 0 1 -29 64 -66 140
-98 207 -196 425 -190 425 4 0 64 -97 118 -195 43 -75 59 -103 108 -191 12
-20 40 -73 64 -117 25 -45 72 -131 105 -191 34 -60 61 -111 61 -114 0 -16 65
-81 100 -100 41 -22 63 -25 245 -37 l80 -5 52 103 c104 205 98 240 -75 492
-42 61 -146 205 -232 320 -162 219 -220 300 -220 309 0 8 29 -22 58 -59 13
-17 38 -46 55 -65 18 -19 52 -60 77 -90 24 -30 55 -66 67 -80 20 -23 183 -219
220 -265 25 -31 129 -153 185 -217 91 -105 177 -123 397 -82 19 4 44 8 55 9
12 1 26 3 32 4 6 0 11 11 11 23 0 21 8 68 20 123 3 11 7 49 9 85 2 52 -1 75
-20 115 -33 69 -60 96 -266 259 -254 202 -310 248 -310 253 0 2 15 -6 33 -19
56 -39 192 -141 197 -148 16 -19 225 -163 280 -193 108 -58 251 -79 357 -51
85 22 205 85 197 104 -3 8 -12 47 -20 85 -46 218 -101 285 -331 403 -61 31
-110 58 -109 59 2 2 22 -3 45 -12 46 -16 158 -40 236 -51 119 -16 254 -3 350
34 46 17 175 93 175 103 0 23 -38 87 -88 150 -64 82 -136 141 -226 188 -57 30
-57 31 -25 32 147 2 312 55 422 136 28 20 76 64 108 97 67 70 67 70 -18 145
-93 83 -307 176 -445 194 -45 5 -42 14 9 22 57 8 187 53 261 89 191 95 325
248 366 419 6 27 3 29 -57 57 -106 48 -254 72 -441 72 -75 0 -114 3 -105 9 8
5 20 9 28 9 21 0 167 76 246 128 84 55 217 186 266 262 65 100 110 239 85 259
-42 34 -325 44 -436 16 -8 -2 -33 -7 -55 -10 -23 -3 -52 -7 -65 -10 -24 -4
-24 -3 5 18 68 50 194 168 251 236 70 83 137 208 159 298 18 72 26 185 14 205
-9 14 -129 17 -205 5 -91 -14 -259 -64 -409 -122 -11 -5 5 9 37 31 289 200
452 576 388 895 -16 76 -70 212 -90 224 -17 11 -174 -127 -559 -494 -299 -284
-318 -302 -299 -273 8 12 28 37 44 55 56 61 171 212 246 322 62 90 188 307
188 322 0 2 9 23 19 46 36 79 80 216 95 294 15 79 16 290 1 363 -21 106 -85
227 -152 291 -37 36 -122 94 -128 87 -1 -2 -25 -50 -53 -108 -139 -286 -394
-720 -680 -1155 -101 -155 -268 -391 -302 -428 -4 -5 -29 7 -55 27 -25 20 -50
36 -55 36 -5 0 -18 -25 -29 -55 -69 -185 -229 -418 -395 -577 -39 -38 -75 -68
-81 -68 -5 0 -18 20 -28 44 -36 86 -35 86 -107 -6 -36 -46 -227 -245 -425
-443 -376 -375 -449 -456 -508 -565 -57 -106 -71 -172 -55 -260 14 -77 56
-145 159 -257 114 -123 144 -182 136 -269 -11 -119 -126 -251 -274 -315 -74
-32 -194 -50 -265 -40 -4 1 -7 164 -7 364 0 199 0 373 0 387 l-1 26 -361 -1
c-332 0 -364 1 -391 18 -37 22 -32 30 10 17 53 -15 162 -6 217 19 95 42 149
115 163 219 11 80 7 86 -36 58 -145 -94 -346 -32 -452 139 -61 99 -89 258 -68
390 4 28 10 64 13 82 2 17 12 53 20 80 19 56 111 247 128 266 7 6 32 41 56 77
69 101 130 173 188 223 20 17 22 17 58 -8 50 -33 82 -32 175 9 107 46 168 59
249 53 104 -9 173 -35 254 -95 79 -60 113 -129 110 -224 -1 -21 1 -38 4 -38 3
0 22 12 42 27 125 95 135 211 28 314 -39 37 -135 94 -186 109 l-26 8 27 1 c73
2 257 -98 373 -202 117 -106 330 -119 482 -31 117 69 208 246 173 338 l-11 29
-26 -52 c-44 -90 -134 -131 -270 -124 -84 4 -235 46 -348 96 -124 55 -295 94
-402 92 -24 0 -43 2 -43 5 0 7 71 34 145 56 82 24 258 24 340 0 73 -21 137
-58 182 -102 19 -19 37 -34 40 -34 13 0 84 83 103 121 11 21 23 55 26 76 3 21
9 52 13 68 12 51 4 147 -18 207 -59 156 -205 254 -411 275 -30 3 -56 7 -58 8
-2 1 -5 15 -8 31 -7 44 -45 73 -87 67 -30 -4 -35 -1 -39 19 -3 13 -8 30 -12
39 -5 12 2 16 41 17 68 4 249 39 324 63 160 52 314 145 370 222 85 117 87 215
7 450 -42 125 -43 129 -60 220 -11 60 -5 122 15 170 l12 29 76 -40 c42 -21
101 -49 130 -62 66 -28 210 -70 221 -64 19 12 54 -116 63 -233 6 -74 -17 -141
-87 -261 -33 -56 -68 -128 -78 -159 -33 -109 -10 -224 70 -347 90 -138 105
-173 105 -246 0 -51 -6 -77 -29 -123 -16 -33 -35 -61 -43 -64 -28 -11 -11 -20
30 -16 152 14 264 118 274 256 6 81 -7 129 -59 208 -47 70 -67 112 -74 148 -4
20 1 17 38 -21 87 -89 179 -108 329 -68 90 24 103 24 123 4 20 -20 21 -93 2
-139 -8 -19 -12 -35 -8 -35 21 0 106 97 128 145 36 77 38 143 8 203 -42 84
-109 106 -228 73 -42 -12 -85 -21 -95 -21 -28 0 -44 26 -46 76 -3 56 24 100
110 177 86 77 119 142 119 232 1 165 -104 266 -334 324 -47 11 -100 22 -119
23 -42 3 -120 78 -194 188 -66 98 -166 196 -225 222 -90 39 -118 31 -307 -82
-60 -36 -144 -82 -185 -101 -129 -62 -172 -128 -165 -256 4 -84 38 -187 114
-352 73 -158 91 -212 96 -290 5 -89 -16 -142 -85 -211 -67 -67 -199 -136 -334
-175 -135 -38 -137 -38 -141 53 -2 50 3 68 42 146 62 125 130 293 146 363 20
85 15 152 -17 217 -44 90 -114 133 -318 195 -89 28 -116 25 -124 -12 -4 -20
-10 -27 -21 -23 -8 3 -21 6 -30 6 -11 0 -13 7 -8 30 4 20 3 30 -5 30 -7 0 0
14 14 31 14 17 27 38 27 47 4 45 -3 79 -21 105 l-21 27 21 0 c20 0 18 4 -14
42 -34 40 -44 58 -29 58 8 0 77 -52 81 -62 12 -28 17 7 17 112 0 66 -1 120 -3
120 -5 0 -57 -35 -70 -47 -24 -23 -33 -14 -17 17 9 17 19 30 23 30 4 0 13 9
20 20 12 20 10 20 -114 20 l-126 0 36 -42 c55 -64 48 -77 -14 -28 -21 17 -42
30 -46 30 -7 0 -9 -123 -5 -228 1 -8 18 1 43 22 23 20 45 36 50 36 16 0 8 -17
-28 -58 -32 -38 -33 -42 -15 -42 l21 0 -20 -32 c-27 -45 -26 -97 5 -142 13
-20 20 -36 15 -36 -6 0 -10 -15 -10 -33 0 -29 -3 -33 -25 -33 -14 0 -26 4 -26
8 -9 58 -22 59 -181 10 -270 -82 -340 -210 -257 -468 33 -105 92 -239 137
-314 21 -35 27 -59 28 -107 1 -43 -2 -63 -10 -63 -14 0 -158 49 -235 79 -143
57 -262 118 -361 183 l-80 53 -2 70 c-5 172 -6 167 29 230 95 170 221 454 276
620 119 357 36 595 -258 742 -64 32 -224 86 -290 98 -21 4 -56 15 -77 26 -70
36 -168 28 -168 -12 0 -54 -13 -68 -57 -62 -60 7 -61 7 -53 57 8 51 5 56 -22
56 -16 0 -14 5 13 27 90 76 104 222 30 314 l-30 36 38 -1 38 -2 -57 71 c-61
74 -85 113 -76 122 7 8 70 -33 135 -87 l56 -47 0 224 c0 123 -2 223 -5 223 -3
0 -30 -20 -60 -45 -57 -47 -118 -81 -127 -71 -8 8 39 74 92 130 l45 46 -231 0
-231 0 49 -57z m519 -2853 c16 -6 67 -30 114 -52 146 -69 398 -142 565 -163
73 -10 80 -25 9 -20 -32 2 -104 7 -159 10 -55 3 -116 8 -135 11 -81 12 -154
26 -176 34 -42 16 -29 -23 27 -84 60 -66 179 -142 287 -184 176 -69 174 -63
22 -58 -111 4 -148 9 -210 30 -41 14 -76 26 -78 26 -11 0 27 -48 75 -95 34
-34 85 -69 126 -89 l68 -33 -63 -58 c-125 -113 -329 -187 -525 -189 -57 0
-103 -4 -103 -8 0 -13 86 -69 137 -88 30 -11 76 -21 103 -22 52 -2 59 -10 37
-37 -18 -21 -121 -203 -179 -316 -129 -251 -234 -567 -263 -790 -4 -27 -10
-68 -14 -90 -7 -39 -8 -37 -15 30 -4 39 -9 77 -11 85 -1 8 -5 31 -9 50 -11 68
-17 91 -40 178 -73 265 -181 510 -341 778 -36 59 -65 108 -65 108 0 1 24 2 53
3 71 4 159 38 208 82 l41 36 -94 1 c-51 0 -112 3 -136 7 -119 18 -283 85 -366
150 -46 35 -99 87 -94 92 1 1 30 15 63 30 41 19 83 52 133 102 41 41 72 76 70
79 -2 2 -26 -5 -54 -15 -71 -27 -186 -43 -284 -39 l-85 3 70 24 c83 28 236
102 285 138 19 15 52 42 73 62 57 53 89 123 50 106 -33 -14 -123 -33 -180 -39
-192 -18 -368 -28 -360 -20 3 3 20 8 39 10 232 33 482 108 658 198 l85 44 306
-4 c188 -2 317 -8 335 -14z m794 -236 c0 -2 -9 -4 -20 -4 -11 0 -20 4 -20 9 0
5 9 7 20 4 11 -3 20 -7 20 -9z m-2233 0 c-3 -3 -12 -4 -19 -1 -8 3 -5 6 6 6
11 1 17 -2 13 -5z m1301 -8104 c46 -173 106 -347 182 -530 60 -145 114 -299
123 -349 2 -9 9 -41 15 -71 26 -124 29 -154 27 -257 -2 -60 -5 -115 -7 -123
-13 -48 -33 -99 -51 -125 -21 -32 -75 -85 -87 -85 -3 0 -6 51 -6 113 0 104 -8
255 -19 337 -2 19 -7 55 -10 80 -24 186 -70 400 -126 590 -56 188 -74 253
-105 383 -12 52 -15 66 -25 112 -23 118 -29 247 -14 320 7 37 10 27 40 -120
18 -88 46 -212 63 -275z m-292 375 c6 -45 1 -183 -11 -260 -11 -66 -64 -281
-101 -410 -87 -294 -137 -512 -159 -695 -3 -25 -8 -61 -10 -80 -13 -106 -19
-210 -20 -332 0 -76 -4 -138 -9 -138 -22 0 -95 90 -117 145 -22 55 -24 73 -23
215 0 133 4 170 27 261 29 118 82 269 149 429 56 132 154 418 158 462 1 4 6
22 11 40 6 18 12 44 15 56 3 13 11 48 19 77 7 29 22 103 32 164 10 61 21 111
25 111 4 0 10 -20 14 -45z m-327 -217 c-19 -38 -254 -336 -289 -368 -11 -9
-135 -185 -180 -255 -43 -64 -106 -186 -129 -248 -9 -24 -13 -25 -43 -16 -84
24 -102 143 -41 269 34 69 128 162 320 316 169 135 294 243 338 291 36 39 40
40 24 11z m1172 -280 c318 -256 380 -334 382 -473 0 -75 -18 -111 -71 -132
l-32 -13 -54 113 c-30 61 -74 141 -98 177 -90 135 -142 207 -187 260 -26 30
-57 66 -68 80 -12 14 -45 54 -75 90 -59 71 -138 179 -138 190 0 3 33 -26 73
-65 40 -38 161 -141 268 -227z m-2103 -848 c31 -24 119 -63 157 -69 6 0 10
-32 11 -70 1 -64 -1 -70 -21 -74 -33 -6 -121 24 -160 56 -43 35 -58 84 -44
144 6 24 13 43 16 43 2 0 21 -13 41 -30z m2748 13 c20 -34 17 -101 -6 -138
-25 -40 -105 -82 -167 -88 l-43 -4 -1 41 c-1 23 -2 57 -3 76 -1 24 3 34 12 32
22 -4 157 57 172 78 18 24 22 25 36 3z"/>
</g>
</svg>
