<?xml version="1.0" standalone="no"?>
<!DOCTYPE svg PUBLIC "-//W3C//DTD SVG 20010904//EN"
 "http://www.w3.org/TR/2001/REC-SVG-20010904/DTD/svg10.dtd">
<svg version="1.0" xmlns="http://www.w3.org/2000/svg"
 width="135.000000pt" height="135.000000pt" viewBox="0 0 135.000000 135.000000"
 preserveAspectRatio="xMidYMid meet">
<metadata>
Created by potrace 1.11, written by Peter Selinger 2001-2013
</metadata>
<g transform="translate(0.000000,135.000000) scale(0.100000,-0.100000)"
fill="#FFFFFF" stroke="none">
<path d="M127 1136 c-37 -61 -78 -129 -91 -151 l-25 -41 78 -135 c43 -74 80
-143 84 -152 3 -9 12 -17 19 -18 7 0 48 -2 90 -3 59 -1 82 -6 97 -20 31 -28
26 -53 -22 -131 l-44 -70 22 -35 c22 -35 45 -76 112 -197 19 -34 39 -66 46
-71 7 -6 84 -10 191 -9 l179 2 43 72 c23 40 63 110 88 156 40 74 44 85 32 103
-7 10 -27 45 -44 77 -30 56 -31 60 -17 88 17 31 17 31 131 32 l71 0 83 150
c46 83 83 155 83 161 0 6 -39 77 -86 158 l-87 146 -176 -1 -175 -1 -42 -70
c-48 -83 -62 -96 -97 -89 -32 5 -31 4 -78 88 l-40 70 -179 1 -180 2 -66 -112z
m604 -286 c10 -6 25 -23 32 -38 53 -107 -82 -196 -160 -107 -69 79 33 195 128
145z"/>
</g>
</svg>
