<?xml version="1.0" standalone="no"?>
<!DOCTYPE svg PUBLIC "-//W3C//DTD SVG 20010904//EN"
 "http://www.w3.org/TR/2001/REC-SVG-20010904/DTD/svg10.dtd">
<svg version="1.0" xmlns="http://www.w3.org/2000/svg"
 width="300.000000pt" height="300.000000pt" viewBox="0 0 300.000000 300.000000"
 preserveAspectRatio="xMidYMid meet">
<metadata>
Created by potrace 1.11, written by Peter Selinger 2001-2013
</metadata>
<g transform="translate(0.000000,300.000000) scale(0.100000,-0.100000)"
fill="#000000" stroke="none">
<path d="M1033 2807 l-433 -191 0 -176 0 -177 165 -79 c90 -43 163 -80 161
-81 -3 -3 -646 290 -698 318 -17 9 -18 -37 -18 -908 l1 -918 197 -90 c108 -49
260 -119 337 -155 77 -37 280 -131 450 -209 l311 -142 644 300 645 300 3 923
2 923 -662 278 c-365 152 -665 277 -668 276 -3 0 -200 -87 -437 -192z m1055
-564 l-46 -16 -4 -57 -3 -57 80 34 c98 43 111 48 105 40 -3 -3 -145 -71 -315
-150 -171 -80 -333 -156 -361 -169 l-51 -25 -179 84 c-98 45 -176 83 -172 83
3 0 50 12 105 26 54 15 269 71 478 125 359 92 469 117 363 82z m-1078 -173 c8
-5 11 -10 5 -10 -5 0 -17 5 -25 10 -8 5 -10 10 -5 10 6 0 17 -5 25 -10z m450
-769 c0 -11 -4 -23 -10 -26 -14 -8 -13 -72 1 -77 6 -2 9 -13 7 -25 l-3 -21
-62 26 c-59 24 -63 28 -63 57 0 30 5 35 58 58 70 31 72 32 72 8z m0 -186 c0
-9 -9 -15 -25 -15 -22 0 -25 -4 -25 -35 0 -31 3 -35 25 -35 18 0 25 -5 25 -20
0 -18 -7 -20 -65 -20 -58 0 -65 2 -65 20 0 13 7 20 20 20 16 0 20 7 20 35 0
28 -4 35 -20 35 -11 0 -20 7 -20 15 0 12 14 15 65 15 51 0 65 -3 65 -15z m-89
-205 l6 -45 1 43 c2 34 5 42 21 42 16 0 21 -8 24 -42 l4 -43 1 48 c2 34 6 47
17 47 12 0 15 -13 15 -60 l0 -60 -34 0 c-18 0 -48 -3 -65 -6 l-31 -6 0 66 c0
59 2 67 18 64 12 -2 19 -16 23 -48z m57 -137 c2 -29 8 -43 18 -43 8 0 14 -9
14 -20 0 -18 -7 -20 -65 -20 l-65 0 0 53 c0 63 13 79 60 75 33 -3 35 -5 38
-45z m32 -143 c0 -17 -7 -20 -42 -20 l-43 0 40 -23 c32 -18 41 -29 43 -55 l3
-32 -66 0 c-58 0 -66 2 -63 18 2 12 16 19 43 22 l40 5 -42 24 c-35 20 -43 30
-43 53 0 28 0 28 65 28 58 0 65 -2 65 -20z m-659 -227 c-12 -20 -14 -14 -5 12
4 9 9 14 11 11 3 -2 0 -13 -6 -23z m-18 -38 c-3 -9 -8 -14 -10 -11 -3 3 -2 9
2 15 9 16 15 13 8 -4z"/>
<path d="M1372 1241 c-11 -7 -10 -10 3 -15 23 -9 25 -8 25 9 0 17 -9 19 -28 6z"/>
<path d="M1370 756 c0 -17 5 -26 16 -26 10 0 14 7 12 22 -5 32 -28 35 -28 4z"/>
</g>
</svg>
