<svg version="1" xmlns="http://www.w3.org/2000/svg" width="933.333" height="933.333" viewBox="0 0 700.000000 700.000000"><path d="M222 129.5c-70.1 25-128.7 46-130.1 46.7l-2.6 1.3 19.9 172c10.9 94.5 20 172 20.1 172.1.1.1 49.9 27.7 110.5 61.3l110.4 61.2 109.6-60.7c60.4-33.4 110.1-61 110.5-61.4 1.1-1 40.8-344.3 39.9-345.2-.4-.3-31.1-11.4-68.2-24.6-37.1-13.2-95.3-34-129.4-46.1-34-12.2-62.1-22.1-62.5-22.1-.3.1-58 20.5-128.1 45.5zM431 328c44.3 99.6 80.7 181.5 80.8 182 .2.6-11.2 1-30 1h-30.3l-16.4-41-16.5-41-69 .2-69 .3-16.2 40.5-16.2 40.5-30.5.3-30.6.2 4.4-9.7c2.4-5.4 18.7-42 36.2-81.3 17.6-39.3 52.1-116.8 76.8-172.3C329.2 192.3 349.7 147 350 147c.3 0 36.8 81.5 81 181z"/><path d="M326.2 321.8C313.4 352.5 303 378 303 378.3c0 .4 21.2.7 47 .7 25.9 0 47-.3 47-.7 0-1.3-46.4-112.3-47-112.3-.3 0-11 25.1-23.8 55.8z"/></svg>